<svg id="Layer_1" data-name="Layer 1" xmlns="http://www.w3.org/2000/svg" viewBox="0 0 669.23 704.21"><title>large-black-symbol-logo</title><path d="M808.93,222.55l-3.06-2.21c-2-1.42-3.92-2.85-5.94-4.19-3.21-2.14-6.47-4.19-9.73-6.24a31.08,31.08,0,0,1-7.65,11.52c3.26,2,6.51,4.09,9.71,6.22,1.86,1.24,3.67,2.56,5.47,3.87l3.21,2.31a6.91,6.91,0,1,0,8-11.28Z" transform="translate(-142.62 -147.89)"/><path d="M574.12,147.9h-2.5c-116.81,0-217,38.3-289.89,110.85-7.74,7.7-15,15.82-22,24.18q-7,8.41-13.63,17.24a92.37,92.37,0,0,1,13.11,5.62c5.94-7.87,12.12-15.54,18.69-22.86q6.6-7.38,13.61-14.38c70.23-69.91,167.06-106.82,280.14-106.82h2.43A398.91,398.91,0,0,1,731,194.34a30.55,30.55,0,0,1,5.09-12.87A412.83,412.83,0,0,0,574.12,147.9Z" transform="translate(-142.62 -147.89)"/><path d="M302.15,840.2c-78.54-75-121.8-176.16-121.8-284.74a473.78,473.78,0,0,1,3.38-55.93q1.29-10.8,3.06-21.42a93.56,93.56,0,0,1-13.13-5.46c-1.55,8.85-2.79,17.83-3.84,26.88a487.48,487.48,0,0,0-3.29,55.93c0,112.39,44.77,217.06,126.07,294.73a6.91,6.91,0,0,0,9.55-10Z" transform="translate(-142.62 -147.89)"/><path d="M247,322.88a73.06,73.06,0,1,0,41.82,66A73,73,0,0,0,247,322.88Z" transform="translate(-142.62 -147.89)"/><path d="M219.3,596.43a6.81,6.81,0,0,0-7.19-6.63,6.91,6.91,0,0,0-6.62,7.19c3.61,87.44,41.8,167.44,107.55,225.26a6.92,6.92,0,1,0,9.13-10.39C259.29,756.56,222.75,680.06,219.3,596.43Z" transform="translate(-142.62 -147.89)"/><path d="M781.82,196.42a20.79,20.79,0,0,0-.89-3.91c-.14-.42-.35-.8-.51-1.2a21,21,0,0,0-1.07-2.36c-.25-.45-.56-.85-.84-1.27a20.77,20.77,0,0,0-1.35-1.88c-.34-.41-.73-.77-1.1-1.15s-1-1-1.6-1.51-.87-.65-1.32-1a20.13,20.13,0,0,0-1.83-1.15,15.81,15.81,0,0,0-1.49-.73,19.5,19.5,0,0,0-2-.79c-.53-.17-1.08-.33-1.63-.46a18.93,18.93,0,0,0-2.15-.38c-.57-.07-1.14-.14-1.72-.16-.29,0-.56-.08-.85-.08A20.52,20.52,0,0,0,741,198.82a19,19,0,0,0,.07,2.71,20.79,20.79,0,0,0,.89,3.91c.14.42.35.8.51,1.2a20.21,20.21,0,0,0,1.07,2.36c.25.45.56.85.84,1.27a21.34,21.34,0,0,0,1.35,1.88c.34.41.73.77,1.1,1.15a20.6,20.6,0,0,0,1.6,1.51c.42.35.88.66,1.32,1a18.15,18.15,0,0,0,1.83,1.15c.48.27,1,.51,1.49.74.66.29,1.32.55,2,.78.53.18,1.08.33,1.63.46a19.51,19.51,0,0,0,2.16.38,16,16,0,0,0,1.71.16c.29,0,.57.08.86.08a20.55,20.55,0,0,0,20.41-23.11Z" transform="translate(-142.62 -147.89)"/></svg>