<?xml version="1.0" encoding="utf-8"?>
<!-- Generator: Adobe Illustrator 23.0.0, SVG Export Plug-In . SVG Version: 6.00 Build 0)  -->
<svg version="1.1" id="Layer_1" xmlns="http://www.w3.org/2000/svg" xmlns:xlink="http://www.w3.org/1999/xlink" x="0px" y="0px"
	 viewBox="0 0 1000 1000" style="enable-background:new 0 0 1000 1000;" xml:space="preserve">
<style type="text/css">
	.st0{fill:#FFFFFF;}
</style>
<g>
	<path class="st0" d="M808.9,222.5l-3.1-2.2c-2-1.4-3.9-2.8-5.9-4.2c-3.2-2.1-6.5-4.2-9.7-6.2c-1.7,4.4-4.3,8.3-7.6,11.5
		c3.3,2,6.5,4.1,9.7,6.2c1.9,1.2,3.7,2.6,5.5,3.9l3.2,2.3c3.1,2.2,7.4,1.5,9.6-1.6C812.8,229.1,812,224.8,808.9,222.5z"/>
	<path class="st0" d="M574.1,147.9c-0.8,0-1.7,0-2.5,0c-116.8,0-217,38.3-289.9,110.8c-7.7,7.7-15,15.8-22,24.2
		c-4.7,5.6-9.3,11.3-13.6,17.2c4.5,1.6,8.9,3.4,13.1,5.6c5.9-7.9,12.1-15.5,18.7-22.9c4.4-4.9,8.9-9.7,13.6-14.4
		c70.2-69.9,167.1-106.8,280.1-106.8c0.8,0,1.6,0,2.4,0c54.8,0.3,108,11.4,156.9,32.6c0.7-4.6,2.4-9,5.1-12.9
		C685.6,159.7,630.6,148.2,574.1,147.9z"/>
	<path class="st0" d="M302.1,840.2c-78.5-75-121.8-176.2-121.8-284.7c0-19,1.2-37.7,3.4-55.9c0.9-7.2,1.9-14.4,3.1-21.4
		c-4.5-1.5-8.9-3.3-13.1-5.5c-1.6,8.9-2.8,17.8-3.8,26.9c-2.1,18.3-3.3,36.9-3.3,55.9c0,112.4,44.8,217.1,126.1,294.7
		c1.3,1.3,3.1,1.9,4.8,1.9c1.8,0,3.6-0.7,5-2.1C305,847.2,304.9,842.8,302.1,840.2z"/>
	<path class="st0" d="M247,322.9c-4.3-2-8.8-3.6-13.5-4.8c-5.7-1.4-11.7-2.3-17.8-2.3c-40.4,0-73.1,32.7-73.1,73.1
		c0,26.5,14.2,49.7,35.3,62.5c4,2.5,8.3,4.5,12.8,6.2c7.8,2.8,16.2,4.5,25,4.5c40.4,0,73.1-32.7,73.1-73.1
		C288.8,359.7,271.7,334.6,247,322.9z"/>
	<path class="st0" d="M219.3,596.4c-0.2-3.8-3.4-7-7.2-6.6c-3.8,0.2-6.8,3.4-6.6,7.2c3.6,87.4,41.8,167.4,107.6,225.3
		c1.3,1.2,2.9,1.7,4.6,1.7c1.9,0,3.8-0.8,5.2-2.3c2.5-2.9,2.2-7.2-0.6-9.8C259.3,756.6,222.8,680.1,219.3,596.4z"/>
	<path class="st0" d="M781.8,196.4c-0.2-1.4-0.5-2.7-0.9-3.9c-0.1-0.4-0.3-0.8-0.5-1.2c-0.3-0.8-0.7-1.6-1.1-2.4
		c-0.2-0.4-0.6-0.8-0.8-1.3c-0.4-0.6-0.9-1.3-1.3-1.9c-0.3-0.4-0.7-0.8-1.1-1.2c-0.5-0.5-1-1-1.6-1.5c-0.4-0.3-0.9-0.7-1.3-1
		c-0.6-0.4-1.2-0.8-1.8-1.2c-0.5-0.3-1-0.5-1.5-0.7c-0.7-0.3-1.3-0.6-2-0.8c-0.5-0.2-1.1-0.3-1.6-0.5c-0.7-0.2-1.4-0.3-2.2-0.4
		c-0.6-0.1-1.1-0.1-1.7-0.2c-0.3,0-0.6-0.1-0.8-0.1c-0.9,0-1.7,0.1-2.6,0.2c-5.4,0.7-9.9,3.4-13.1,7.2c-3,3.6-4.7,8.1-4.8,13
		c0,0.9,0,1.8,0.1,2.7c0.2,1.4,0.5,2.7,0.9,3.9c0.1,0.4,0.3,0.8,0.5,1.2c0.3,0.8,0.7,1.6,1.1,2.4c0.2,0.4,0.6,0.8,0.8,1.3
		c0.4,0.6,0.9,1.3,1.3,1.9c0.3,0.4,0.7,0.8,1.1,1.2c0.5,0.5,1,1,1.6,1.5c0.4,0.3,0.9,0.7,1.3,1c0.6,0.4,1.2,0.8,1.8,1.2
		c0.5,0.3,1,0.5,1.5,0.7c0.7,0.3,1.3,0.6,2,0.8c0.5,0.2,1.1,0.3,1.6,0.5c0.7,0.2,1.4,0.3,2.2,0.4c0.6,0.1,1.1,0.1,1.7,0.2
		c0.3,0,0.6,0.1,0.9,0.1c0.9,0,1.7-0.1,2.6-0.2c3.4-0.4,6.5-1.8,9.2-3.6c3.9-2.7,6.8-6.7,8.1-11.3
		C781.9,201.9,782.2,199.2,781.8,196.4z"/>
</g>
</svg>
